<svg width="15" height="18" viewBox="0 0 15 18" fill="none" xmlns="http://www.w3.org/2000/svg">
<path d="M13.595 5.8799C13.0311 6.22511 12.564 6.70774 12.2375 7.28261C11.911 7.85748 11.7356 8.5058 11.7279 9.1669C11.7301 9.91095 11.9505 10.638 12.3619 11.258C12.7733 11.878 13.3575 12.3638 14.0421 12.655C13.7722 13.526 13.3727 14.3514 12.857 15.1034C12.1192 16.1656 11.3477 17.2276 10.1738 17.2276C8.99998 17.2276 8.69807 16.5456 7.34527 16.5456C6.02604 16.5456 5.55645 17.25 4.48316 17.25C3.40986 17.25 2.66088 16.2661 1.79997 15.0587C0.662778 13.3672 0.0377897 11.3836 0 9.34572C0 5.99172 2.18015 4.21415 4.32663 4.21415C5.46704 4.21415 6.41736 4.96313 7.13289 4.96313C7.81486 4.96313 8.87701 4.16934 10.1738 4.16934C10.8406 4.15214 11.5014 4.29915 12.098 4.59745C12.6946 4.89574 13.2086 5.33615 13.595 5.8799ZM9.55898 2.74954C10.1306 2.07705 10.4543 1.22877 10.4757 0.346398C10.4767 0.230076 10.4655 0.113974 10.4422 0C9.46021 0.0959239 8.55215 0.563953 7.90427 1.30809C7.3271 1.95378 6.9913 2.77941 6.95395 3.64465C6.95438 3.74988 6.96563 3.85478 6.98751 3.95771C7.06492 3.97235 7.14352 3.97985 7.2223 3.98012C7.67487 3.94411 8.11538 3.81645 8.51707 3.6049C8.91877 3.39336 9.27325 3.10234 9.55898 2.74954Z" fill="white"/>
</svg>
