<svg width="10" height="11" viewBox="0 0 10 11" fill="none" xmlns="http://www.w3.org/2000/svg">
<path d="M9.39844 4.40039L0.398438 4.40039M6.89844 0.400391V2.40039M2.89844 0.400391L2.89844 2.40039M0.398438 3.00039L0.398438 8.80039C0.398438 9.36044 0.398438 9.64047 0.507431 9.85438C0.603304 10.0425 0.756285 10.1955 0.944447 10.2914C1.15836 10.4004 1.43838 10.4004 1.99844 10.4004L7.79844 10.4004C8.35849 10.4004 8.63852 10.4004 8.85243 10.2914C9.04059 10.1955 9.19357 10.0425 9.28944 9.85438C9.39844 9.64047 9.39844 9.36044 9.39844 8.80039L9.39844 3.00039C9.39844 2.44034 9.39844 2.16031 9.28944 1.9464C9.19357 1.75824 9.04059 1.60526 8.85243 1.50938C8.63852 1.40039 8.35849 1.40039 7.79844 1.40039C5.8651 1.40039 3.93177 1.40039 1.99844 1.40039C1.43839 1.40039 1.15836 1.40039 0.944447 1.50938C0.756285 1.60526 0.603304 1.75824 0.507431 1.9464C0.398438 2.16031 0.398438 2.44034 0.398438 3.00039Z" stroke="white" stroke-opacity="0.5" stroke-width="0.8" stroke-linecap="round" stroke-linejoin="round"/>
</svg>
