<svg width="62" height="62" viewBox="0 0 62 62" fill="none" xmlns="http://www.w3.org/2000/svg">
<path d="M4.75067 42.3756H57.2494V8.62439H4.75067V42.3756Z" fill="#CB132A"/>
<path d="M8.53783 49.4276V49.9466H7.83195V52.5507H7.19973V49.9466H6.5V49.4276" fill="#75787B"/>
<path d="M9.74707 52.5507V51.0454C9.74707 50.851 9.71638 50.6997 9.5261 50.6997C9.33582 50.6997 9.30513 50.851 9.30513 51.0454V52.5507H8.71588V49.4276H9.30513V50.5871H9.31125C9.42787 50.3926 9.58746 50.3231 9.80843 50.3231C10.0908 50.3231 10.3363 50.4964 10.3363 50.7991V52.5507" fill="#75787B"/>
<path d="M11.7235 51.2141C11.7235 51.0021 11.7358 50.6995 11.4535 50.6995C11.1834 50.6995 11.1834 51.0276 11.1834 51.2141H11.7235ZM11.1834 51.5554C11.1834 51.815 11.1957 52.2038 11.4535 52.2038C11.6622 52.2038 11.7051 51.9962 11.7051 51.815H12.3005C12.2944 52.0525 12.2207 52.2469 12.0795 52.3815C11.9384 52.5153 11.7297 52.5935 11.4535 52.5935C10.6924 52.5935 10.588 52.1132 10.588 51.4296C10.588 50.8332 10.6739 50.3229 11.4535 50.3229C12.2514 50.3229 12.3373 50.8552 12.3189 51.5554" fill="#75787B"/>
<path d="M13.4544 50.9891C13.4544 50.163 13.4544 49.3756 14.4978 49.3756C15.1423 49.3756 15.4001 49.7433 15.3756 50.4137H14.7556C14.7556 49.9985 14.6881 49.8428 14.4978 49.8428C14.1418 49.8428 14.0927 50.1894 14.0927 50.9891C14.0927 51.7887 14.1418 52.1354 14.4978 52.1354C14.7925 52.1354 14.7802 51.7456 14.7863 51.4993H15.4124C15.4124 52.3342 15.0871 52.6025 14.4978 52.6025C13.4544 52.6025 13.4544 51.8063 13.4544 50.9891Z" fill="#75787B"/>
<path d="M16.192 51.8713C16.192 52.027 16.2165 52.217 16.413 52.217C16.7567 52.217 16.7076 51.7332 16.7076 51.4948C16.413 51.5079 16.192 51.4816 16.192 51.8713ZM17.2846 52.144C17.2846 52.2777 17.2968 52.4158 17.3091 52.5504H16.7628L16.7383 52.2601H16.7322C16.6033 52.4853 16.4314 52.5935 16.1797 52.5935C15.7685 52.5935 15.615 52.2777 15.615 51.8968C15.615 51.1745 16.1552 51.1446 16.7076 51.1534V50.9845C16.7076 50.7989 16.6769 50.6643 16.4682 50.6643C16.2595 50.6643 16.2473 50.8244 16.2473 50.9977H15.6642C15.6642 50.7338 15.7439 50.5649 15.8851 50.4654C16.0202 50.3616 16.2104 50.3229 16.4375 50.3229C17.1864 50.3229 17.2846 50.6555 17.2846 51.054" fill="#75787B"/>
<path d="M17.6528 52.5506H18.2421V49.4284H17.6528V52.5506Z" fill="#75787B"/>
<path d="M19.2426 52.5507H18.6534V50.3662H19.2426V52.5507ZM19.2426 49.4276V49.9079H18.6534V49.4276" fill="#75787B"/>
<path d="M20.6359 49.8041C20.3966 49.7865 20.3413 49.8815 20.3413 50.1023V50.3662H20.6237V50.7428H20.3413V52.5507H19.7521V50.7428H19.4881V50.3662H19.7582C19.7521 49.739 19.703 49.4064 20.4211 49.4064C20.4948 49.4064 20.5623 49.4109 20.6359 49.4152" fill="#75787B"/>
<path d="M21.8696 51.3953C21.8696 50.9414 21.8451 50.7118 21.5934 50.7118C21.3479 50.7118 21.3233 50.9414 21.3233 51.3953C21.3233 52.0613 21.3786 52.2038 21.5934 52.2038C21.8144 52.2038 21.8696 52.0613 21.8696 51.3953ZM20.7341 51.4296C20.7341 50.8332 20.82 50.3229 21.5934 50.3229C22.3729 50.3229 22.4589 50.8332 22.4589 51.4296C22.4589 52.1132 22.3607 52.5935 21.5934 52.5935C20.8323 52.5935 20.7341 52.1132 20.7341 51.4296Z" fill="#75787B"/>
<path d="M23.3366 50.366V50.6476H23.3427C23.4532 50.3968 23.6496 50.3229 23.889 50.3229V50.8675C23.3734 50.8332 23.3611 51.1446 23.3611 51.361V52.5504H22.7719V50.366" fill="#75787B"/>
<path d="M24.6686 50.5869H24.6809C24.7975 50.3924 24.9571 50.3229 25.1781 50.3229C25.4604 50.3229 25.706 50.4962 25.706 50.7989V52.5504H25.1167V51.0452C25.1167 50.8508 25.0799 50.6995 24.8896 50.6995C24.7055 50.6995 24.6686 50.8508 24.6686 51.0452V52.5504H24.0794V50.366H24.6686" fill="#75787B"/>
<path d="M26.688 52.5507H26.0987V50.3662H26.688V52.5507ZM26.688 49.4276V49.9079H26.0987V49.4276" fill="#75787B"/>
<path d="M27.6027 51.8713C27.6027 52.027 27.6272 52.217 27.8175 52.217C28.1674 52.217 28.1121 51.7332 28.1121 51.4948C27.8175 51.5079 27.6027 51.4816 27.6027 51.8713ZM28.6891 52.144C28.6891 52.2777 28.7075 52.4158 28.7198 52.5504H28.1735L28.149 52.2601H28.1367C28.0139 52.4853 27.8421 52.5935 27.5843 52.5935C27.173 52.5935 27.0257 52.2777 27.0257 51.8968C27.0257 51.1745 27.5659 51.1446 28.1121 51.1534V50.9845C28.1121 50.7989 28.0876 50.6643 27.8728 50.6643C27.6702 50.6643 27.6518 50.8244 27.6518 50.9977H27.0748C27.0748 50.7338 27.1546 50.5649 27.2896 50.4654C27.4247 50.3616 27.6211 50.3229 27.8421 50.3229C28.5971 50.3229 28.6891 50.6555 28.6891 51.054" fill="#75787B"/>
<path d="M30.8741 52.6025C30.0885 52.6025 29.9412 52.1266 29.978 51.5855H30.6102C30.6102 51.8846 30.6225 52.1354 30.9662 52.1354C31.181 52.1354 31.2854 51.9928 31.2854 51.7808C31.2854 51.2187 30.0148 51.1835 30.0148 50.2536C30.0148 49.7653 30.2419 49.3756 31.0092 49.3756C31.6291 49.3756 31.9299 49.6615 31.8931 50.3143H31.2731C31.2731 50.0812 31.2363 49.8428 30.9846 49.8428C30.7759 49.8428 30.6532 49.9598 30.6532 50.1762C30.6532 50.7682 31.9299 50.7163 31.9299 51.6981C31.9299 52.5066 31.3529 52.6025 30.8741 52.6025Z" fill="#75787B"/>
<path d="M32.0221 50.3662H32.2615V50.0204L32.8568 49.7477V50.3662H33.1576V50.7427H32.8568V51.9101C32.8568 52.0746 32.8507 52.1828 33.041 52.1828C33.0778 52.1828 33.1146 52.1828 33.1453 52.174V52.5506C33.0655 52.5594 32.9857 52.5717 32.8384 52.5717C32.329 52.5717 32.2615 52.2215 32.2615 52.0878V50.7427H32.0221" fill="#75787B"/>
<path d="M33.9002 51.8713C33.9002 52.027 33.9248 52.217 34.1212 52.217C34.4649 52.217 34.4097 51.7332 34.4097 51.4948C34.1212 51.5079 33.9002 51.4816 33.9002 51.8713ZM34.9866 52.144C34.9866 52.2777 35.0051 52.4158 35.0173 52.5504H34.4711L34.4465 52.2601H34.4342C34.3115 52.4853 34.1396 52.5935 33.8818 52.5935C33.4706 52.5935 33.3233 52.2777 33.3233 51.8968C33.3233 51.1745 33.8634 51.1446 34.4097 51.1534V50.9845C34.4097 50.7989 34.3851 50.6643 34.1703 50.6643C33.9677 50.6643 33.9493 50.8244 33.9493 50.9977H33.3724C33.3724 50.7338 33.4522 50.5649 33.5933 50.4654C33.7222 50.3616 33.9186 50.3229 34.1458 50.3229C34.8946 50.3229 34.9867 50.6555 34.9867 51.054" fill="#75787B"/>
<path d="M35.1524 50.3662H35.3918V50.0204L35.9811 49.7477V50.3662H36.288V50.7427H35.9811V51.9101C35.9811 52.0746 35.9811 52.1828 36.1714 52.1828C36.2082 52.1828 36.245 52.1828 36.2757 52.174V52.5506C36.1959 52.5594 36.11 52.5717 35.9688 52.5717C35.4593 52.5717 35.3918 52.2215 35.3918 52.0878V50.7427H35.1524" fill="#75787B"/>
<path d="M37.5523 51.2141C37.5523 51.0021 37.5585 50.6995 37.2823 50.6995C37.0061 50.6995 37.0122 51.0276 37.0122 51.2141H37.5523ZM37.0122 51.5554C37.0122 51.815 37.0183 52.2038 37.2823 52.2038C37.491 52.2038 37.5339 51.9962 37.5339 51.815H38.1293C38.1232 52.0525 38.0495 52.2469 37.9022 52.3815C37.7672 52.5153 37.5585 52.5935 37.2823 52.5935C36.5212 52.5935 36.4168 52.1132 36.4168 51.4296C36.4168 50.8332 36.5028 50.3229 37.2823 50.3229C38.0741 50.3229 38.1662 50.8552 38.1416 51.5554" fill="#75787B"/>
<path d="M41.4746 49.4276V51.6419C41.4746 52.109 41.2229 52.6026 40.4495 52.6026C39.7559 52.6026 39.4184 52.2304 39.4184 51.6419V49.4276H40.0506V51.5988C40.0506 51.9841 40.2102 52.1354 40.4434 52.1354C40.7196 52.1354 40.8424 51.9445 40.8424 51.5988V49.4276" fill="#75787B"/>
<path d="M42.4505 50.5869H42.4566C42.5732 50.3924 42.7328 50.3229 42.9538 50.3229C43.2361 50.3229 43.4817 50.4962 43.4817 50.7989V52.5504H42.8924V51.0452C42.8924 50.8508 42.8556 50.6995 42.6714 50.6995C42.4812 50.6995 42.4505 50.8508 42.4505 51.0452V52.5504H41.8551V50.366H42.4505" fill="#75787B"/>
<path d="M44.4884 52.5507H43.8992V50.3662H44.4884V52.5507ZM44.4884 49.4276V49.9079H43.8992V49.4276" fill="#75787B"/>
<path d="M44.7033 50.366H45.3048L45.5994 52.005H45.6117L45.9186 50.366H46.4956L45.9186 52.5504H45.2679" fill="#75787B"/>
<path d="M47.7477 51.2141C47.7477 51.0021 47.7538 50.6995 47.4715 50.6995C47.2014 50.6995 47.2076 51.0276 47.2076 51.2141H47.7477ZM47.2076 51.5554C47.2076 51.815 47.2137 52.2038 47.4715 52.2038C47.6802 52.2038 47.7232 51.9962 47.7232 51.815H48.3247C48.3124 52.0525 48.2388 52.2469 48.0976 52.3815C47.9626 52.5153 47.7477 52.5935 47.4715 52.5935C46.7104 52.5935 46.6122 52.1132 46.6122 51.4296C46.6122 50.8332 46.692 50.3229 47.4715 50.3229C48.2695 50.3229 48.3554 50.8552 48.337 51.5554" fill="#75787B"/>
<path d="M49.2147 50.366V50.6476H49.2208C49.3313 50.3968 49.5277 50.3229 49.7671 50.3229V50.8675C49.2515 50.8332 49.2392 51.1446 49.2392 51.361V52.5504H48.65V50.366" fill="#75787B"/>
<path d="M50.4177 51.8493C50.4116 51.9487 50.4177 52.0437 50.4484 52.1132C50.4791 52.1827 50.5405 52.217 50.6632 52.217C50.7799 52.217 50.8781 52.1396 50.8781 51.9927C50.8781 51.5291 49.8408 51.6329 49.8408 50.937C49.8408 50.4654 50.295 50.3229 50.6755 50.3229C51.0745 50.3229 51.4428 50.5217 51.4059 50.9933H50.829C50.829 50.842 50.8106 50.7514 50.7676 50.7118C50.7308 50.6731 50.6817 50.6643 50.6203 50.6643C50.4914 50.6643 50.4177 50.7514 50.4177 50.8983C50.4177 51.244 51.4551 51.2264 51.4551 51.9276C51.4551 52.3076 51.1543 52.5935 50.6632 52.5935C50.1477 52.5935 49.8039 52.459 49.8408 51.8493" fill="#75787B"/>
<path d="M52.3328 52.5507H51.7435V50.3662H52.3328V52.5507ZM52.3328 49.4276V49.9079H51.7435V49.4276" fill="#75787B"/>
<path d="M52.5292 50.3662H52.7686V50.0204L53.3578 49.7477V50.3662H53.6647V50.7427H53.3578V51.9101C53.3578 52.0746 53.3517 52.1828 53.5481 52.1828C53.5849 52.1828 53.6217 52.1828 53.6524 52.174V52.5506C53.5726 52.5594 53.4867 52.5717 53.3455 52.5717C52.8361 52.5717 52.7686 52.2215 52.7686 52.0878V50.7427H52.5292" fill="#75787B"/>
<path d="M54.2846 52.5671L53.7138 50.366H54.3031L54.6038 51.9012H54.61L54.9292 50.366H55.5L54.6836 53.3756H54.0637" fill="#75787B"/>
<path d="M27.0195 22.397H30.541C30.541 22.397 30.5705 20.0082 30.5114 19.0675C30.4818 18.1269 29.9196 15.6185 25.8358 15.6432C21.8112 15.668 20.9531 18.8984 20.9531 20.2186C20.9531 21.5429 20.8939 28.8619 20.9531 30.6401C21.0122 32.4224 22.2255 34.8524 25.7766 34.8648C29.5052 34.8739 30.5114 32.8391 30.541 31.3291C30.5706 29.6004 30.541 28.111 30.541 28.111H27.0195C27.0195 28.111 26.9899 29.8149 26.9899 30.6937C26.9899 31.3291 26.6644 32.2037 25.7766 32.1171C24.7113 32.0139 24.7113 31.2424 24.6817 30.0584C24.6817 28.7588 24.6817 21.4646 24.6817 20.3465C24.6817 19.2284 25.0368 18.3703 25.895 18.3909C26.6644 18.4075 27.0195 19.0428 27.0195 20.3465C27.0195 21.5429 27.0195 22.397 27.0195 22.397Z" fill="white"/>
<path d="M41.4905 22.1708C41.4905 22.1708 41.4609 20.8052 41.4609 19.1797C41.4609 17.55 40.869 15.6522 37.1996 15.6687C33.5301 15.6894 32.6423 17.7274 32.524 19.584C32.376 21.2508 32.524 22.3729 32.7015 22.7896C32.8199 23.1321 33.0566 23.6725 34.1811 24.7204C35.2761 25.723 36.9333 27.0597 37.6139 27.8477C38.1761 28.5449 38.1169 29.7538 38.1169 30.1333C38.1169 30.517 38.1169 31.4907 37.8802 31.8125C37.6731 32.0848 37.3475 32.1714 36.9036 32.1425C36.3414 32.1013 35.8679 32.0064 35.8679 30.7439C35.8679 29.498 35.8679 28.1819 35.8679 28.1819L32.3464 28.1728C32.3464 28.1728 32.3464 30.8338 32.3464 31.5187C32.376 32.0922 32.7311 33.367 33.4117 33.9239C34.3587 34.6789 35.2761 34.8935 36.7853 34.8893C38.62 34.8767 39.8037 34.4974 40.6027 33.6269C41.2537 32.9255 41.668 31.89 41.668 29.7034C41.668 27.4178 41.1946 26.4771 39.6854 24.9712C38.1169 23.4324 36.5485 22.401 36.223 21.5428C35.9271 20.8786 36.0159 19.7234 36.0455 19.2407C36.1046 18.8116 36.2822 18.4032 36.9628 18.4155C37.4955 18.4247 37.821 18.5558 37.969 19.0963C38.1465 19.6285 38.0874 22.1699 38.0874 22.1699" fill="white"/>
<path d="M53.4757 15.867V34.6389L50.1318 34.6429V32.3449C50.1318 32.3449 49.8063 35.0761 46.344 34.841C42.9113 34.6058 43.4439 30.6204 43.4439 29.2713C43.4439 28.4585 43.4439 15.867 43.4439 15.867H47.2022V30.4636C47.2022 30.4636 47.2022 31.231 47.4093 31.4868C47.6756 31.788 47.9124 31.887 48.3563 31.887C48.8002 31.887 49.1553 31.7219 49.392 31.4167C49.5992 31.1114 49.6879 30.4966 49.6879 30.1872C49.6879 29.8819 49.6879 15.867 49.6879 15.867" fill="white"/>
</svg>
