<svg width="23" height="20" viewBox="0 0 23 20" fill="none" xmlns="http://www.w3.org/2000/svg">
<path d="M5.79688 11.8008C6.23016 11.1182 6.82298 10.5573 7.52151 10.169C8.22005 9.78076 9.00217 9.57739 9.79688 9.57739C10.5916 9.57739 11.3737 9.78076 12.0722 10.169C12.7708 10.5573 13.3636 11.1182 13.7969 11.8008M17.7845 4.80078L18.5259 5.0313C20.3348 5.59372 21.2392 5.87493 21.6224 6.59904C22.0057 7.32314 21.718 8.20738 21.1427 9.9758L19.3122 15.6029C18.7369 17.3714 18.4493 18.2556 17.7086 18.6303C16.9679 19.0049 16.0635 18.7237 14.2546 18.1613L5.6208 15.4769C5.11185 15.3186 3.67116 14.9306 3.29688 14.8008M17.7969 4.80078C17.7969 6.80078 17.7969 8.80078 17.7969 10.8008C17.7969 12.6864 17.7969 13.6292 17.2111 14.215C16.6253 14.8008 15.6825 14.8008 13.7969 14.8008C10.7969 14.8008 7.79687 14.8008 4.79687 14.8008C2.91126 14.8008 1.96845 14.8008 1.38266 14.215C0.796875 13.6292 0.796875 12.6864 0.796875 10.8008C0.796875 8.80078 0.796875 6.80078 0.796875 4.80078C0.796875 2.91516 0.796875 1.97235 1.38266 1.38657C1.96845 0.800781 2.91126 0.800781 4.79688 0.800781C7.79688 0.800781 10.7969 0.800782 13.7969 0.800782C15.6825 0.800782 16.6253 0.800782 17.2111 1.38657C17.7969 1.97235 17.7969 2.91516 17.7969 4.80078ZM12.6164 6.68967C12.6164 8.28516 11.3541 9.57856 9.79687 9.57856C8.23967 9.57856 6.9773 8.28516 6.9773 6.68967C6.9773 5.09418 8.23967 3.80078 9.79688 3.80078C11.3541 3.80078 12.6164 5.09418 12.6164 6.68967Z" stroke="white" stroke-opacity="0.5" stroke-width="1.6" stroke-linecap="round"/>
</svg>
