<svg width="24" height="24" viewBox="0 0 24 24" fill="none" xmlns="http://www.w3.org/2000/svg">
<path d="M20.4004 12C20.4004 7.36081 16.6392 3.59961 12 3.59961C7.36081 3.59961 3.59961 7.36081 3.59961 12C3.59961 16.6392 7.36081 20.4004 12 20.4004C16.6392 20.4004 20.4004 16.6392 20.4004 12ZM15.3262 9.32617C15.5605 9.09186 15.9395 9.09186 16.1738 9.32617C16.4081 9.56049 16.4081 9.93951 16.1738 10.1738L10.9238 15.4238C10.6895 15.6581 10.3105 15.6581 10.0762 15.4238L7.82617 13.1738C7.59186 12.9395 7.59186 12.5605 7.82617 12.3262C8.06049 12.0919 8.43951 12.0919 8.67383 12.3262L10.5 14.1523L15.3262 9.32617ZM21.5996 12C21.5996 17.3019 17.3019 21.5996 12 21.5996C6.69807 21.5996 2.40039 17.3019 2.40039 12C2.40039 6.69807 6.69807 2.40039 12 2.40039C17.3019 2.40039 21.5996 6.69807 21.5996 12Z" fill="#E8E8E9"/>
</svg>
