<svg width="24" height="16" viewBox="0 0 24 16" fill="none" xmlns="http://www.w3.org/2000/svg">
<path d="M0.796875 14.3008C1.54602 13.1489 2.571 12.2024 3.77875 11.5472C4.9865 10.892 6.33878 10.5488 7.71281 10.5488C9.08685 10.5488 10.4391 10.892 11.6469 11.5472C12.8546 12.2024 13.8796 13.1489 14.6288 14.3008M22.8787 14.3008C22.1298 13.1489 21.1048 12.2024 19.897 11.5475C18.6892 10.8926 17.3368 10.55 15.9628 10.5508C16.6808 10.5501 17.3897 10.3909 18.039 10.0846C18.6883 9.77817 19.2619 9.33215 19.7188 8.77837C20.1757 8.2246 20.5047 7.57674 20.6822 6.88108C20.8597 6.18543 20.8813 5.45916 20.7456 4.75416C20.6099 4.04916 20.3201 3.38285 19.897 2.80282C19.4739 2.2228 18.9279 1.74339 18.298 1.39884C17.6682 1.0543 16.97 0.85313 16.2534 0.809708C15.5367 0.766286 14.8194 0.881684 14.1525 1.14766M12.5878 5.67578C12.5878 8.36817 10.4052 10.5508 7.71281 10.5508C5.02042 10.5508 2.83781 8.36817 2.83781 5.67578C2.83781 2.98339 5.02042 0.800781 7.71281 0.800781C10.4052 0.800781 12.5878 2.98339 12.5878 5.67578Z" stroke="white" stroke-width="1.6" stroke-linecap="round" stroke-linejoin="round"/>
</svg>
