<svg width="14" height="9" viewBox="0 0 14 9" fill="none" xmlns="http://www.w3.org/2000/svg">
<path d="M13.209 8.93815C13.0258 8.96764 12.7841 8.96875 12.4258 8.96875L1.57487 8.96875C1.21613 8.96875 0.97432 8.96774 0.791016 8.93815L4.49805 5.23177L5.16406 5.89714C5.67103 6.404 6.33663 6.65751 7.00065 6.65755C7.25432 6.65752 7.50875 6.62158 7.75391 6.54753C8.1505 6.42768 8.52379 6.20988 8.83659 5.89714L9.50195 5.23177L13.209 8.93815Z" fill="white"/>
<path d="M3.73698 4.47005L0.0299479 8.17773C0.000415576 7.99443 0 7.7525 0 7.39388L0 1.57487C1.52547e-10 1.20068 0.000949562 0.953632 0.0345052 0.767578L3.73698 4.47005Z" fill="white"/>
<path d="M13.9655 0.767578C13.9991 0.953644 14.0007 1.20061 14.0007 1.57487L14.0007 7.39388C14.0007 7.75256 13.9996 7.99442 13.9701 8.17773L10.2637 4.47005L13.9655 0.767578Z" fill="white"/>
<path d="M12.4258 0C12.7995 2.59367e-09 13.0465 0.000391878 13.2324 0.0338542L8.10352 5.16341C7.87489 5.39204 7.59346 5.53537 7.29883 5.59245C7.09715 5.6315 6.88885 5.6302 6.6875 5.58919C6.39842 5.53021 6.12185 5.38812 5.89714 5.16341L0.767578 0.0338542C0.953611 0.000282625 1.20071 2.09478e-09 1.57487 0L12.4258 0Z" fill="white"/>
</svg>
