<svg width="14" height="13" viewBox="0 0 14 13" fill="none" xmlns="http://www.w3.org/2000/svg">
<path d="M0.731516 1.43586C0.666454 1.36426 0.623562 1.27532 0.60804 1.17983C0.592518 1.08434 0.605033 0.986393 0.644067 0.897872C0.683101 0.809351 0.746977 0.734055 0.827952 0.681114C0.908926 0.628173 1.00352 0.59986 1.10027 0.599609L12.1003 0.599609C12.1971 0.599619 12.2919 0.627756 12.373 0.680603C12.4542 0.733451 12.5183 0.808732 12.5575 0.897301C12.5966 0.985871 12.6093 1.08391 12.5938 1.17952C12.5783 1.27513 12.5354 1.36418 12.4703 1.43586L8.10027 6.09961L8.10027 9.76523C8.10032 9.84757 8.08004 9.92865 8.04122 10.0013C8.00241 10.0739 7.94626 10.1358 7.87777 10.1815L5.87777 11.5146C5.80254 11.5648 5.7151 11.5936 5.62477 11.5981C5.53445 11.6025 5.44461 11.5824 5.36482 11.5398C5.28504 11.4972 5.2183 11.4338 5.17171 11.3563C5.12513 11.2787 5.10043 11.19 5.10027 11.0996L5.10027 6.09961L0.731516 1.43586Z" stroke="white" stroke-width="1.2" stroke-linecap="round" stroke-linejoin="round"/>
</svg>
