<svg width="12" height="12" viewBox="0 0 12 12" fill="none" xmlns="http://www.w3.org/2000/svg">
<path d="M4.10156 0.599609H1.10156C0.82542 0.599609 0.601562 0.823467 0.601562 1.09961V4.09961C0.601562 4.37575 0.82542 4.59961 1.10156 4.59961H4.10156C4.37771 4.59961 4.60156 4.37575 4.60156 4.09961V1.09961C4.60156 0.823467 4.37771 0.599609 4.10156 0.599609Z" stroke="white" stroke-opacity="0.5" stroke-width="1.2" stroke-linecap="round" stroke-linejoin="round"/>
<path d="M10.1016 0.599609H7.10156C6.82542 0.599609 6.60156 0.823467 6.60156 1.09961V4.09961C6.60156 4.37575 6.82542 4.59961 7.10156 4.59961H10.1016C10.3777 4.59961 10.6016 4.37575 10.6016 4.09961V1.09961C10.6016 0.823467 10.3777 0.599609 10.1016 0.599609Z" stroke="white" stroke-opacity="0.5" stroke-width="1.2" stroke-linecap="round" stroke-linejoin="round"/>
<path d="M4.10156 6.59961H1.10156C0.82542 6.59961 0.601562 6.82347 0.601562 7.09961V10.0996C0.601562 10.3758 0.82542 10.5996 1.10156 10.5996H4.10156C4.37771 10.5996 4.60156 10.3758 4.60156 10.0996V7.09961C4.60156 6.82347 4.37771 6.59961 4.10156 6.59961Z" stroke="white" stroke-opacity="0.5" stroke-width="1.2" stroke-linecap="round" stroke-linejoin="round"/>
<path d="M10.1016 6.59961H7.10156C6.82542 6.59961 6.60156 6.82347 6.60156 7.09961V10.0996C6.60156 10.3758 6.82542 10.5996 7.10156 10.5996H10.1016C10.3777 10.5996 10.6016 10.3758 10.6016 10.0996V7.09961C10.6016 6.82347 10.3777 6.59961 10.1016 6.59961Z" stroke="white" stroke-opacity="0.5" stroke-width="1.2" stroke-linecap="round" stroke-linejoin="round"/>
</svg>
