<svg width="18" height="18" viewBox="0 0 18 18" fill="none" xmlns="http://www.w3.org/2000/svg">
<path d="M4.50315 5.34375C4.50315 4.37405 4.88836 3.44407 5.57404 2.75839C6.25972 2.07271 7.1897 1.6875 8.1594 1.6875C9.1291 1.6875 10.0591 2.07271 10.7448 2.75839C11.4304 3.44407 11.8157 4.37405 11.8157 5.34375M5.06565 15.75L3.00409 12.2344C2.82055 11.9116 2.77215 11.5293 2.86944 11.1709C2.96674 10.8125 3.20183 10.5072 3.52343 10.3215C3.84502 10.1358 4.227 10.0849 4.58601 10.1798C4.94502 10.2747 5.25191 10.5078 5.43971 10.8281L6.75315 12.9375L6.75315 5.34375C6.75315 4.97079 6.90131 4.6131 7.16503 4.34938C7.42876 4.08566 7.78644 3.9375 8.1594 3.9375C8.53236 3.9375 8.89005 4.08566 9.15377 4.34938C9.41749 4.6131 9.56565 4.97079 9.56565 5.34375V9.28125C9.56565 8.90829 9.71381 8.5506 9.97753 8.28688C10.2413 8.02316 10.5989 7.875 10.9719 7.875C11.3449 7.875 11.7025 8.02316 11.9663 8.28688C12.23 8.5506 12.3782 8.90829 12.3782 9.28125V10.4062C12.3782 10.0333 12.5263 9.6756 12.79 9.41188C13.0538 9.14816 13.4114 9 13.7844 9C14.1574 9 14.515 9.14816 14.7788 9.41188C15.0425 9.6756 15.1907 10.0333 15.1907 10.4062V12.9375C15.1907 14.625 14.6282 15.75 14.6282 15.75" stroke="black" stroke-opacity="0.8" stroke-width="1.8" stroke-linecap="round" stroke-linejoin="round"/>
</svg>
