<svg width="13" height="11" viewBox="0 0 13 11" fill="none" xmlns="http://www.w3.org/2000/svg">
<path d="M11.1016 6.09961H1.10156C0.82542 6.09961 0.601562 6.32347 0.601562 6.59961V9.09961C0.601562 9.37575 0.82542 9.59961 1.10156 9.59961H11.1016C11.3777 9.59961 11.6016 9.37575 11.6016 9.09961V6.59961C11.6016 6.32347 11.3777 6.09961 11.1016 6.09961Z" stroke="white" stroke-width="1.2" stroke-linecap="round" stroke-linejoin="round"/>
<path d="M11.1016 0.599609H1.10156C0.82542 0.599609 0.601562 0.823467 0.601562 1.09961V3.59961C0.601562 3.87575 0.82542 4.09961 1.10156 4.09961H11.1016C11.3777 4.09961 11.6016 3.87575 11.6016 3.59961V1.09961C11.6016 0.823467 11.3777 0.599609 11.1016 0.599609Z" stroke="white" stroke-width="1.2" stroke-linecap="round" stroke-linejoin="round"/>
</svg>
