<svg width="65" height="26" viewBox="0 0 65 26" fill="none" xmlns="http://www.w3.org/2000/svg">
<g clip-path="url(#clip0_947_17612)">
<path d="M0 25.7134H17.2933V21.6372H4.75163V15.0477H16.5946V10.9716H4.75163V4.48409H17.2933V0.407985H0V25.7134Z" fill="#FDF9F2"/>
<path d="M24.3857 0H19.8092V25.7134H24.3857V0Z" fill="#FDF9F2"/>
<path d="M40.6846 7.71054C39.6019 7.12196 38.3613 6.8272 36.9638 6.8272C35.5663 6.8272 34.4306 7.11634 33.4181 7.6937C32.6366 8.13911 32.0254 8.74361 31.5837 9.5053L31.1746 7.23518H27.3778L27.2863 9.5053V25.7143H31.8628V14.8784C31.8628 14.0633 32.0254 13.3615 32.3517 12.772C32.678 12.1834 33.1313 11.7249 33.7145 11.3964C34.2968 11.068 34.96 10.9042 35.7059 10.9042C36.4518 10.9042 37.1438 11.0689 37.7145 11.3964C38.2852 11.7249 38.7328 12.1834 39.06 12.772C39.3863 13.3615 39.5489 14.0624 39.5489 14.8784V25.7143H44.1254V13.8256C44.1254 12.4445 43.8222 11.2271 43.2168 10.1744C42.6105 9.12165 41.7674 8.301 40.6837 7.71148L40.6846 7.71054Z" fill="#FDF9F2"/>
<path d="M59.0452 25.7134H64.2857L57.1231 14.6744L64.1452 7.23518H58.4504L51.2541 14.5602V0H46.6767V25.7134H51.2541V20.0745L53.7161 17.5059L59.0452 25.7134Z" fill="#FDF9F2"/>
</g>
<defs>
<clipPath id="clip0_947_17612">
<rect width="64.2857" height="25.7143" fill="white"/>
</clipPath>
</defs>
</svg>
