<svg width="62" height="62" viewBox="0 0 62 62" fill="none" xmlns="http://www.w3.org/2000/svg">
<path d="M45.148 15.942C44.578 15.562 43.55 16.512 44.083 16.36C44.615 16.208 45.643 17.424 43.589 21.868C41.915 25.476 40.356 26.198 39.861 26.35C39.861 25.666 40.051 24.413 40.66 22.931C41.61 20.728 42.333 19.779 43.056 19.095C43.779 18.411 43.816 18.943 43.816 18.943C44.045 18.791 43.816 18.183 42.942 17.613C42.067 17.044 39.481 20.045 38.834 23.539C38.454 25.629 38.986 26.426 39.443 26.729C39.899 27.299 42.828 26.958 44.882 22.552C46.936 18.222 45.719 16.322 45.148 15.942ZM37.579 42.454C36.97 42.151 35.943 43.1 36.514 42.91C37.084 42.72 38.264 43.86 36.362 48.304C34.878 51.836 33.357 52.672 32.786 52.9C32.748 52.178 32.901 50.849 33.547 49.253C34.498 46.898 35.297 45.873 36.02 45.151C36.742 44.43 36.818 44.961 36.818 44.961C37.046 44.81 36.818 44.164 35.868 43.556C34.916 42.986 32.178 46.215 31.608 49.937C31.265 52.178 31.836 53.014 32.368 53.28C32.406 53.318 32.444 53.318 32.482 53.356C33.281 53.774 35.943 53.28 37.769 48.912C39.633 44.544 38.188 42.796 37.579 42.454Z" fill="#20F284"/>
<path d="M36.704 24.983C36.932 23.995 37.617 22.21 38.187 21.146C38.797 20.083 39.177 19.741 39.367 19.665C39.443 19.627 39.519 19.513 39.481 19.437C39.291 18.715 38.454 17.652 37.617 18.373C36.704 19.171 34.612 23.387 35.297 25.438C35.487 26.008 35.791 26.122 36.096 26.084H36.172C37.502 26.236 39.862 21.944 39.862 21.944L39.975 21.488C38.15 24.261 37.161 24.868 36.705 24.983H36.704ZM28.07 29.768C28.07 29.768 27.347 32.389 23.734 36.226C21.528 38.543 20.653 38.466 20.311 38.125C20.311 37.517 20.577 36.605 21.338 35.125C21.642 35.39 22.06 35.58 22.555 35.58C23.848 35.618 26.815 30.756 26.282 29.427C26.244 29.161 26.054 28.819 25.483 28.401C23.733 27.338 18.409 35.428 19.093 37.441C19.17 37.707 19.283 37.897 19.36 38.087C19.398 38.239 19.474 38.429 19.664 38.657C20.539 39.72 21.832 39.378 24.457 36.377C27.081 33.377 28.45 30.414 28.45 30.414L28.07 29.768ZM25.56 30.11C25.37 30.908 24.723 32.655 22.973 34.137C22.441 34.554 21.984 34.668 21.642 34.592C21.68 34.554 21.68 34.478 21.718 34.44C23.392 31.554 24.761 30.49 25.56 30.11ZM31.265 37.859C31.417 36.985 32.102 35.238 32.977 33.643C33.585 32.503 33.851 32.465 34.042 32.351C34.117 32.313 34.194 32.199 34.156 32.085C34.042 31.325 33.091 30.338 32.292 31.06C32.102 31.25 31.835 31.592 31.569 32.085C31.303 32.541 30.999 32.997 30.656 33.415C28.869 35.655 28.07 35.428 28.07 35.428L27.956 35.846C29.135 35.39 30.124 34.44 30.884 33.566C30.238 35.086 29.782 36.871 30.086 38.049C30.2 38.466 30.352 38.656 30.542 38.694C30.618 38.732 30.694 38.77 30.808 38.77C32.064 38.96 34.536 34.516 34.536 34.516L34.65 34.022C32.672 36.985 31.645 37.707 31.265 37.859ZM35.22 26.654C35.791 26.464 36.4 27.034 36.172 27.641C36.001 28.0879 35.7706 28.5097 35.487 28.895C34.65 30.186 34.307 30.566 34.117 30.566C33.927 30.566 32.71 30.072 34.156 27.679C34.536 27.034 34.915 26.729 35.22 26.654ZM50.245 31.174C51.082 34.099 45.985 39.036 45.11 39.454C44.92 39.264 44.996 38.124 46.365 35.618C47.963 32.655 49.028 31.136 48.533 30.604C48.001 30.072 46.936 29.617 44.92 32.314C43.322 34.402 42.333 35.96 41.725 37.024C42.143 35.922 42.828 34.402 43.931 32.314C44.691 30.87 45.034 30.984 45.034 30.984C45.186 30.946 44.958 30.49 44.121 30.034C43.246 29.579 42.447 31.288 41.231 33.947C39.975 36.606 39.709 37.935 40.013 38.543C40.318 39.15 41.116 39.264 41.154 38.998C41.154 38.998 41.192 38.884 41.23 38.695C41.535 38.011 42.866 35.086 46.517 31.098C46.517 31.098 45.833 32.238 44.311 35.808C43.893 36.758 43.703 37.479 43.665 38.048C43.665 38.048 43.551 38.543 43.665 38.96C43.7023 39.1172 43.7811 39.2615 43.893 39.378C44.349 39.872 45.833 40.138 48.952 36.985L49.37 36.567C50.51 35.352 51.158 34.402 51.5 33.643C51.652 33.301 51.766 32.997 51.804 32.731C52.07 30.832 50.245 31.174 50.245 31.174Z" fill="#20F284"/>
<path d="M18.257 35.2C18.485 34.744 18.713 34.25 18.98 33.756C19.094 33.529 19.17 33.339 19.284 33.186C20.463 30.908 21.832 28.515 22.554 27.034C24 24.109 22.784 26.084 22.022 26.198C21.984 26.198 21.566 26.388 20.882 25.894L20.805 26.198C20.501 27.148 17.686 32.161 17.686 32.161C17.686 32.161 16.203 34.971 15.975 37.099C15.823 38.466 16.279 38.922 16.697 39.074C18.143 39.872 20.121 36.644 20.121 36.644L20.083 36.264C18.143 38.77 17.534 38.884 17.42 38.39C17.42 38.352 17.42 38.314 17.382 38.276C17.306 37.935 17.344 37.137 18.257 35.2ZM40.85 30.49C40.85 30.262 40.698 30.148 40.394 29.996C39.709 29.35 37.884 29.236 36.4 30.87C34.232 33.49 33.585 36.453 34.004 37.82C34.194 38.466 34.46 38.618 34.726 38.656H34.84C36.666 38.542 38.986 32.541 38.986 32.541C38.986 32.541 38.948 34.212 36.742 38.542C34.688 42.644 33.242 42.758 32.748 42.72C32.748 42.72 32.368 42.493 32.938 41.467C33.053 41.277 33.471 40.821 32.977 41.011C31.265 41.695 31.455 43.366 33.927 43.062C37.883 42.53 40.203 34.516 40.584 33.035C40.888 31.857 40.317 31.515 39.784 31.439C39.214 31.363 39.176 31.477 37.693 34.44C36.704 36.53 35.867 37.479 35.297 37.934C35.183 37.479 35.335 36.377 36.818 33.49C38.568 30.148 39.708 29.92 40.203 30.11C40.279 30.224 40.317 30.49 40.127 30.946C40.051 31.173 40.85 30.794 40.85 30.49ZM25.75 45.607C25.75 45.607 25.674 45.683 25.56 45.873C22.137 51.875 20.387 52.33 19.93 52.33C19.702 51.495 19.778 49.975 20.92 47.545C22.669 43.898 24.228 42.949 24.875 42.683C24.913 43.1 24.799 43.86 23.962 45.076C23.924 45.114 23.962 45.152 24 45.152C24.343 45.038 25.294 44.658 25.674 43.404C25.978 42.454 25.331 42.037 24.837 41.885C24.114 40.783 22.593 40.175 19.778 44.848C16.964 49.444 17.953 51.951 19.018 52.862C19.17 52.976 19.322 53.09 19.436 53.166C19.626 53.28 19.854 53.356 20.159 53.356C22.365 53.394 25.749 45.494 25.749 45.494C25.788 45.531 25.789 45.569 25.75 45.607ZM52.108 31.288C52.298 31.478 53.021 32.428 51.234 34.972C51.196 35.01 53.896 32.123 52.108 31.288ZM52.07 44.961C53.173 44.05 54.352 42.834 55.303 41.277C57.928 37.137 55.873 35.162 53.934 35.883C51.994 36.605 48.571 42.265 46.707 46.975C44.844 51.685 45.3 53.128 46.365 53.432C46.859 53.584 47.545 53.204 48.115 52.672C48.495 52.33 48.837 51.988 49.142 51.57C49.788 50.697 51.005 48.988 51.005 47.848C50.283 48.798 47.962 52.52 46.974 52.596C46.213 52.634 48.533 47.278 48.533 47.278C48.533 47.278 52.451 46.328 55.76 41.315C55.798 41.315 54.238 43.48 52.07 44.961ZM54.961 37.175C54.961 37.175 55.493 38.315 53.706 41.353C51.918 44.353 49.256 45.759 49.256 45.759C53.173 38.809 54.961 37.175 54.961 37.175Z" fill="#20F284"/>
<path d="M15.024 29.084C12.932 29.426 11.106 34.478 10.764 37.289C10.46 39.454 12.171 40.479 14.948 36.795C18.447 32.123 18.828 31.363 18.828 31.363C18.828 31.363 17.154 28.743 15.024 29.084ZM12.399 38.314H12.285C11.943 38.238 11.145 37.554 13.769 32.997C13.769 32.997 13.084 34.554 12.704 35.921C13.426 34.098 14.644 31.781 15.442 31.06C16.849 29.844 17.915 31.553 17.915 31.553C17.915 31.553 13.579 38.2 12.399 38.314ZM45.794 46.975C45.9523 46.4538 46.067 45.9203 46.137 45.38C46.327 43.556 46.061 41.923 45.224 41.24C44.844 40.936 44.425 40.746 44.007 40.784C43.474 40.784 42.98 41.087 42.599 41.581C42.2936 42.0084 42.0978 42.5043 42.029 43.025C41.953 43.556 41.991 44.316 42.371 45.19C42.371 45.19 41.877 44.81 41.648 44.24C41.268 44.392 40.888 44.696 40.508 45.114C39.366 46.291 38.339 48.494 38.492 50.469C38.53 50.887 38.606 52.634 39.747 53.242C39.975 53.356 40.241 53.432 40.507 53.432C41.268 53.432 42.105 52.9 42.98 51.912C43.55 51.267 44.159 50.432 44.691 49.52C44.881 49.14 45.224 48.532 45.528 47.735C46.023 47.735 46.517 47.697 46.974 47.583C47.088 47.545 47.202 47.545 47.278 47.507L47.544 46.747C46.897 46.975 46.289 47.013 45.794 46.975ZM43.284 43.253C43.36 42.645 43.626 42.227 43.931 42.189H44.007C44.235 42.189 44.463 42.303 44.653 42.569C45.072 43.177 45.3 44.809 44.577 46.633C44.083 46.367 43.817 46.101 43.817 46.101C43.246 45.266 43.17 43.936 43.284 43.252V43.253ZM41.078 52.065C40.698 52.406 40.355 52.558 40.089 52.558H40.013C39.861 51.988 39.861 50.925 40.545 49.064C41.23 47.241 42.029 46.139 42.561 45.607C42.714 46.063 43.056 46.557 43.436 46.899C43.4915 46.9587 43.5555 47.01 43.626 47.051H43.664C43.816 47.203 44.007 47.279 44.159 47.355C44.197 47.393 44.235 47.393 44.273 47.431C43.208 49.71 42.105 51.153 41.078 52.065ZM17.116 48.342C17.686 45.417 17.724 42.302 17.724 41.429C17.724 39.796 17.078 39.834 16.089 39.909C15.062 39.986 14.606 40.442 14.948 40.442C15.176 40.442 15.328 41.087 15.328 42.227C14.948 43.1 13.655 45.493 10.346 48.646C10.041 48.266 9.927 47.924 9.851 48C9.775 48.038 9.699 48.608 9.737 49.368C8.52 50.355 5.287 52.634 3.195 50.735C3.157 50.697 3.081 50.735 3.081 50.811C3.233 51.761 4.146 55.673 9.813 50.165C10.003 51.495 10.46 53.052 11.601 53.774C12.247 54.154 13.997 54.685 15.747 50.963C15.747 50.963 15.367 52.863 14.035 53.963C15.556 53.356 16.469 51.305 17.002 49.026C19.474 47.544 21.3 44.544 21.3 44.544L21.338 43.86C19.664 46.291 18.218 47.62 17.116 48.342ZM12.057 52.52C10.422 52.558 10.27 50.203 10.27 49.71L10.345 49.634C10.612 49.785 11.791 50.394 14.111 49.861C13.236 52.064 12.057 52.52 12.057 52.52ZM10.917 49.14C12.97 47.013 14.453 45 15.252 43.746C15.176 44.848 14.986 46.215 14.72 47.658C14.6168 48.2114 14.4768 48.7573 14.301 49.292C12.59 49.823 11.564 49.595 10.917 49.14Z" fill="#20F284"/>
<path d="M6.352 50.431C6.352 50.431 2.815 50.583 2.624 47.013C2.624 47.013 1.407 50.887 6.352 50.431ZM41.61 10.891C41.306 10.131 40.964 9.71302 40.545 9.56102C40.317 9.48502 39.975 9.52302 39.557 9.90302C38.644 10.701 38.149 11.46 38.149 11.46C38.149 11.46 39.062 9.98002 39.937 9.48502C39.214 9.59902 38.416 10.359 37.617 11.385C33.927 16.36 30.467 25.895 30.961 27.907C31.265 29.123 32.14 29.237 32.482 29.237C31.607 28.781 34.954 20.31 38.035 15.107C36.552 14.689 35.715 14.613 35.715 14.613L38.415 14.461C38.605 14.157 38.758 13.891 38.948 13.626C40.545 11.233 41.23 11.005 41.535 11.043C41.611 11.043 41.648 10.929 41.61 10.891ZM60.02 19.209C59.563 18.183 58.042 18.411 58.042 18.411C59.031 21.564 54.314 26.008 52.26 27.489H52.222C51.88 27.717 51.652 27.869 51.462 27.907C51.386 27.945 51.31 27.945 51.234 27.983C50.587 28.211 49.826 28.249 49.484 27.413C49.484 27.375 49.446 27.337 49.446 27.337C49.446 27.375 49.446 27.375 49.484 27.413C49.56 27.603 49.902 28.097 50.929 27.793V27.755C50.853 27.223 51.081 25.97 52.299 23.691C54.049 20.348 55.836 18.069 55.227 17.461C54.657 16.891 53.211 16.322 50.549 19.741C48.723 22.096 47.354 24.223 46.631 25.628C47.164 24.185 48.039 22.096 49.37 19.551C50.245 17.804 50.663 17.993 50.663 17.993C50.815 17.917 50.549 17.386 49.56 16.892C48.495 16.36 47.62 18.412 46.175 21.526C44.73 24.678 44.425 26.274 44.768 26.957C45.11 27.641 46.061 27.793 46.098 27.489V27.337C46.098 27.337 47.886 23.159 52.717 17.993C52.717 17.993 51.31 19.893 49.75 23.919C49.332 24.982 49.142 25.818 49.142 26.426C49.142 26.426 49.065 26.957 49.218 27.451C49.294 27.641 49.37 27.793 49.522 27.945C50.13 28.591 52.146 28.933 56.33 25.362C56.52 25.21 56.71 25.058 56.863 24.868C57.89 23.918 58.613 23.121 59.145 22.399C58.498 24.185 56.102 26.236 56.102 26.236C56.102 26.236 57.167 25.514 58.422 24.071C60.895 21.26 60.324 19.703 60.02 19.209Z" fill="#20F284"/>
<path d="M60.78 18.221C60.78 18.221 63.785 18.943 60.362 22.704C60.362 22.666 62.606 19.627 60.781 18.222L60.78 18.221ZM10.422 40.138C10.422 40.138 7.492 40.252 10.46 35.2C10.46 35.162 8.558 39.036 10.422 40.138ZM29.63 27.679C29.744 28.515 29.477 29.73 29.477 29.73C29.477 29.73 29.515 28.629 29.325 27.945C29.211 27.451 28.679 27.489 28.336 27.565C27.613 27.755 27.537 27.983 27.766 27.983C28.146 27.983 28.222 30.642 27.766 34.136C27.69 34.668 27.614 35.124 27.499 35.541C24.723 36.643 24.304 34.402 24.114 34.516C23.924 34.668 23.696 39.91 26.434 39.682C29.82 39.416 29.82 30.11 29.82 28.742C29.896 28.211 29.782 27.869 29.63 27.679ZM25.902 38.314C24.532 38.428 24.609 36.111 24.609 36.111C24.609 36.111 25.407 36.643 27.385 35.997C26.777 37.897 25.902 38.314 25.902 38.314ZM41.535 13.436C42.257 13.246 42.79 13.967 42.447 14.651C42.295 14.993 41.991 15.449 41.534 16.056C40.394 17.5 40.089 17.88 39.861 17.842C39.633 17.804 38.225 17.12 40.203 14.499C40.698 13.815 41.155 13.549 41.535 13.436Z" fill="#20F284"/>
<path d="M48.761 14.6511C49.065 11.8781 46.213 12.1821 40.013 12.9411C38.72 13.0941 38.377 13.1701 37.084 13.3211C35.144 13.5881 33.433 13.8151 32.254 13.9291C26.967 14.6511 26.663 14.9551 26.663 14.9551C29.173 14.4611 31.683 14.2711 31.683 14.2711C27.499 14.8031 26.396 15.1831 26.13 15.3351C29.896 15.0691 35.03 14.6891 39.366 14.4611C39.709 13.9291 40.051 13.6641 40.356 13.5501C40.4819 13.4965 40.6195 13.4764 40.7555 13.4917C40.8915 13.507 41.0212 13.5572 41.1321 13.6374C41.243 13.7176 41.3312 13.825 41.3883 13.9494C41.4454 14.0737 41.4694 14.2107 41.458 14.3471C41.801 14.3471 42.105 14.3091 42.409 14.3091C48.229 14.0811 48.191 14.4991 48.495 14.6891C48.571 14.7271 48.723 14.8031 48.761 14.6511ZM21.908 24.8691C21.376 24.9821 23.392 20.4631 25.065 17.4991C26.092 15.7531 25.635 15.4111 24.799 14.8791C23.962 14.3851 23.772 14.3851 23.278 14.9171C22.783 15.4491 18.218 22.0201 16.469 25.0581C16.469 25.0581 17.8 21.2981 19.93 17.2721C22.06 13.2461 22.175 13.5881 21.186 12.6381C20.577 12.1061 20.159 11.8401 19.55 12.3721C18.942 12.8661 11.106 23.8811 10.041 25.5141C10.041 25.5141 12.514 19.8931 15.975 14.3471C18.751 9.86509 19.892 9.10509 19.322 8.53609C18.828 8.04209 17.915 7.47209 14.644 9.25709C11.22 11.1191 0 18.6771 0 23.7671C0 24.0711 0.076 24.2991 0.152 24.5271C0.19 23.2351 0.989 21.7921 1.978 20.4621C0.418 23.0071 0.38 24.4121 0.608 25.0961C1.255 25.6661 2.32 25.6661 3.043 25.5141C3.119 25.4761 3.119 25.4001 3.043 25.3621C2.206 24.9821 2.244 23.9191 2.473 23.0071C2.473 22.9691 2.51 22.8931 2.51 22.8551C2.586 22.5901 2.662 22.3241 2.777 22.0201C2.929 21.6401 3.043 21.4121 3.043 21.4121C3.423 20.5761 3.918 19.7791 4.336 19.1331C4.945 18.1071 5.896 16.9301 7.226 15.6391C12.515 10.5111 17.307 8.49809 17.307 8.49809C17.307 8.49809 13.655 13.5111 10.46 18.9811C7.303 24.5271 6.314 26.6911 6.922 27.8691C6.922 27.8691 6.922 27.9071 6.96 27.9071C7.227 26.0461 8.976 23.3491 8.976 23.3491C8.976 23.3491 7.873 25.4761 7.379 27.3751C7.265 27.7931 7.265 28.1351 7.341 28.4391C7.835 29.0091 8.406 29.1991 8.52 29.2371H8.558C8.71 28.8951 10.84 24.9071 18.942 14.0431C15.861 19.8931 13.807 24.2231 14.91 25.4001C15.975 26.5781 16.317 26.1981 16.545 25.8181C16.774 25.4001 21.033 18.8681 22.745 16.5501C22.745 16.5501 21.262 19.6651 20.387 22.2481C19.664 24.4131 20.425 24.9071 20.881 25.2101C21.338 25.5141 22.213 25.9321 22.897 25.0961C24 23.6911 27.081 19.3991 27.081 19.3991L27.157 18.8671C27.081 18.7911 22.441 24.7541 21.908 24.8691Z" fill="#20F284"/>
<path d="M30.999 16.93C30.847 16.588 30.429 16.094 29.629 15.867C28.299 15.449 25.94 18.791 25.027 22.21C24.343 25.362 25.141 26.35 25.75 26.654C26.358 27.224 29.363 26.502 31.455 21.336C32.939 17.766 31.835 17.044 30.999 16.93ZM29.706 22.438C27.956 25.552 26.586 26.084 26.092 26.198C25.978 25.552 26.13 24.185 27.424 21.526C28.944 18.373 30.048 17.576 30.618 17.386C30.961 18.069 31.303 19.626 29.706 22.438ZM28.83 39.264C28.755 39.226 28.64 39.302 28.679 39.416C28.755 39.72 28.603 40.442 27.842 41.809C26.435 44.278 25.56 45.493 24.381 48.266C23.24 50.926 23.201 52.558 24.419 53.394C24.495 53.432 24.571 53.394 24.609 53.318C24.761 52.938 25.103 51.685 27.423 48.304C30.238 44.164 30.2 44.886 30.2 45.038C30.162 45.19 29.059 46.557 27.994 49.33C27.234 51.305 27.309 52.216 27.766 52.71C28.374 53.356 29.211 53.508 29.706 53.128C30.2 52.748 31.227 50.583 31.683 49.634L32.444 47.203C32.444 47.203 30.352 52.255 29.364 52.558C28.754 52.748 29.554 49.52 31.645 46.519C32.368 45.493 31.874 45.038 31.417 44.696C30.961 44.354 30.657 44.164 30.124 44.392C29.477 44.696 26.967 47.848 24.951 51.761C24.951 51.761 24.799 51.305 28.184 45.531C30.352 41.771 31.303 40.328 28.83 39.264Z" fill="#20F284"/>
</svg>
