<svg width="16" height="16" viewBox="0 0 16 16" fill="none" xmlns="http://www.w3.org/2000/svg">
<path d="M2.23039 5.31651C1.53837 3.45487 2.54091 2.52451 3.44709 2.1616C3.78309 2.02704 4.14774 2.1892 4.35467 2.48616L5.69905 4.41544C5.94199 4.76407 5.90724 5.22559 5.6909 5.59133C5.57786 5.78244 5.49581 5.96146 5.43627 6.12733C5.21798 6.7355 5.47441 7.39019 5.87103 7.9003C7.14796 9.54262 8.46326 10.7336 9.13547 10.7651C9.53616 10.7839 10.0033 10.5555 10.3618 10.3299C10.7194 10.1049 11.183 10.0712 11.5345 10.3056L13.508 11.6216C13.8086 11.822 13.9804 12.1828 13.8698 12.5267C13.2858 14.3427 11.4207 14.1181 10.4837 13.7354C5.85601 11.5851 3.2871 8.15926 2.23039 5.31651Z" fill="white"/>
<path d="M7.66406 4.04017C8.38722 4.28122 9.2093 4.75312 9.91016 5.39564C10.6108 6.03801 11.2223 6.88074 11.4707 7.87415L10.4619 8.12611C10.2768 7.38609 9.80612 6.71146 9.20703 6.16224C8.60801 5.61311 7.91269 5.2188 7.33594 5.0265L7.66406 4.04017Z" fill="white"/>
<path d="M8.05931 0.995117C9.40908 1.33251 10.7936 1.90348 11.9587 2.92285C13.1307 3.94838 14.0518 5.40324 14.5076 7.4541L13.9997 7.56641L13.4919 7.67969C13.081 5.83057 12.2688 4.57638 11.2742 3.70605C10.2728 2.82984 9.05736 2.31737 7.80736 2.00488L8.05931 0.995117Z" fill="white"/>
</svg>
