<svg width="26" height="21" viewBox="0 0 26 21" fill="none" xmlns="http://www.w3.org/2000/svg">
<path d="M0.251981 20.2499C0.217147 19.623 0.642785 18.5108 1.44312 18.1457C2.92308 17.4703 5.15191 17.0143 6.26894 16.5317C6.79091 16.4311 8.71407 15.3943 9.00848 14.8722C9.22358 14.4912 9.30207 14.2018 9.33321 13.7654C9.37972 13.1161 9.34235 12.4995 9.09319 11.9268C8.84404 11.3542 8.82162 10.7967 8.81041 10.1623C8.73525 10.1623 8.66424 10.1623 8.58409 10.1623C8.50395 10.1623 8.42464 10.1449 8.35404 10.1076C8.31958 10.0894 8.28511 10.0617 8.27058 9.99665C8.17092 9.73371 8.12233 9.48567 8.09161 9.20741C8.02517 8.68111 7.8545 8.22852 7.60618 7.76061C7.46582 7.49684 7.51357 6.93327 7.89644 6.93244C7.75816 6.93286 7.59995 5.19993 7.60161 5.02229C7.60493 4.70303 7.65061 4.38294 7.76688 4.08439C7.82418 3.93656 7.8981 3.7966 7.98572 3.66451C8.10822 3.48025 8.32871 3.43097 8.38934 3.19867C8.41467 3.10219 8.41799 3.00115 8.43087 2.90219C8.48776 2.46699 8.73151 2.07858 9.00848 1.73779C9.10482 1.61895 9.22068 1.57547 9.33321 1.45622C9.44574 1.33696 9.60645 1.2235 9.76466 1.17671C10.2123 0.359314 11.2795 0.227222 12.1291 0.252895C13.0136 0.252067 13.9736 0.311695 14.7639 0.755176C14.925 0.845032 15.0541 0.85911 15.2385 0.866564C15.9532 0.896792 16.5507 1.33986 17.032 1.83966C17.2255 2.07154 17.3106 2.3614 17.3305 2.65829C17.3463 2.89101 17.223 3.22641 17.3065 3.4347C17.321 3.47197 17.3443 3.50509 17.3675 3.5378C17.7408 4.06866 17.8592 4.53201 17.8779 5.17922C17.8965 5.83057 17.5988 6.42064 17.5303 7.05667C17.9709 7.0459 17.8803 7.59332 17.821 7.88483C17.6412 8.26123 17.2741 9.15523 17.2678 9.67159C17.2554 9.83391 17.2159 9.96352 17.1462 10.0819C17.0527 10.2405 16.8684 10.3238 16.6861 10.2969C16.6628 10.2935 16.6396 10.2902 16.6163 10.2869C16.5744 10.8016 16.4481 11.3093 16.2355 11.7809C16.0499 12.1929 16.1266 12.5902 16.0984 13.0561C16.0411 14.0014 16.0977 15.2868 17.1462 15.7104C17.9612 16.039 18.7936 16.4577 19.6267 16.7349C20.5021 17.026 22.9818 18.2026 23.8542 18.5024L23.8546 18.502C23.8567 18.5028 23.8588 18.504 23.8613 18.5045C24.6859 18.6755 25.1031 19.5858 25.0794 20.2499" stroke="url(#paint0_linear_3917_952)" stroke-width="0.5"/>
<path d="M19.6267 16.7349C20.5021 17.026 22.9818 18.2026 23.8542 18.5024C23.8563 18.5032 23.8588 18.504 23.8613 18.5045C24.6859 18.6755 25.1031 19.5858 25.0794 20.2499H12.1291H0.251981C0.217147 19.623 0.642785 18.5108 1.44312 18.1457C2.92308 17.4703 5.15191 17.0143 6.26894 16.5317C6.79091 16.4311 8.71407 15.3943 9.00848 14.8722C9.22358 14.4912 9.30207 14.2018 9.33321 13.7654C9.37972 13.1161 9.34235 12.4995 9.09319 11.9268C8.84404 11.3542 8.82162 10.7967 8.81041 10.1623H8.58409C8.50395 10.1623 8.42464 10.1449 8.35404 10.1076C8.31958 10.0894 8.28511 10.0617 8.27058 9.99665C8.17092 9.73371 8.12233 9.48567 8.09161 9.20741C8.02517 8.68111 7.8545 8.22852 7.60618 7.76061C7.46582 7.49684 7.51357 6.93327 7.89644 6.93244C7.75816 6.93286 7.59995 5.19993 7.60161 5.02229C7.60493 4.70303 7.65061 4.38294 7.76688 4.08439C7.82418 3.93656 7.8981 3.7966 7.98572 3.66451C8.10822 3.48025 8.32871 3.43097 8.38934 3.19867C8.41467 3.10219 8.41799 3.00115 8.43087 2.90219C8.48776 2.46699 8.73151 2.07858 9.00848 1.73779C9.10482 1.61895 9.22068 1.57547 9.33321 1.45622C9.44574 1.33696 9.60645 1.2235 9.76466 1.17671C10.2123 0.359314 11.2795 0.227222 12.1291 0.252895C13.0136 0.252067 13.9736 0.311695 14.7639 0.755176C14.925 0.845032 15.0541 0.85911 15.2385 0.866564C15.9532 0.896792 16.5507 1.33986 17.032 1.83966C17.2255 2.07154 17.3106 2.3614 17.3305 2.65829C17.3463 2.89101 17.223 3.22641 17.3065 3.4347C17.321 3.47197 17.3443 3.50509 17.3675 3.5378C17.7408 4.06866 17.8592 4.53201 17.8779 5.17922C17.8965 5.83057 17.5988 6.42064 17.5303 7.05667C17.9709 7.0459 17.8803 7.59332 17.821 7.88483C17.6412 8.26123 17.2741 9.15524 17.2678 9.67159C17.2554 9.83391 17.2159 9.96352 17.1462 10.0819C17.0527 10.2405 16.8684 10.3238 16.6861 10.2969L16.6163 10.2869C16.5744 10.8016 16.4481 11.3093 16.2355 11.7809C16.0499 12.1929 16.1266 12.5902 16.0984 13.0561C16.0411 14.0014 16.0977 15.2868 17.1462 15.7104C17.9612 16.039 18.7936 16.4577 19.6267 16.7349Z" fill="url(#paint1_linear_3917_952)"/>
<defs>
<linearGradient id="paint0_linear_3917_952" x1="12.6652" y1="0.25" x2="12.6652" y2="20.2499" gradientUnits="userSpaceOnUse">
<stop stop-color="white" stop-opacity="0.8"/>
<stop offset="1" stop-color="white" stop-opacity="0.05"/>
</linearGradient>
<linearGradient id="paint1_linear_3917_952" x1="12.6652" y1="0.25" x2="12.6652" y2="20.2499" gradientUnits="userSpaceOnUse">
<stop stop-color="white" stop-opacity="0.2"/>
<stop offset="1" stop-color="white" stop-opacity="0.02"/>
</linearGradient>
</defs>
</svg>
