<svg width="62" height="62" viewBox="0 0 62 62" fill="none" xmlns="http://www.w3.org/2000/svg">
<path fill-rule="evenodd" clip-rule="evenodd" d="M16.9486 2.00537C16.9759 2.00537 32.9392 2.00537 34.3298 2.00537C36.294 2.00537 36.326 1.96224 36.5039 2.12041C37.0422 2.59332 41.1628 6.88311 41.3038 6.8176C41.3187 6.95607 41.3251 10.2452 41.323 16.6849C41.323 17.3847 41.3743 17.5221 41.0586 17.5269C39.9596 17.5429 39.5959 17.5221 39.4694 17.5157C39.2771 17.5045 39.2114 17.6004 39.3588 17.7234C39.4886 17.8305 39.4902 17.8257 39.6055 17.9503C40.7558 19.1741 41.2172 19.5288 41.2925 19.6854C41.3775 19.8627 41.2541 21.462 41.3694 21.5946C41.4287 21.6633 41.4463 21.6505 43.5803 21.6505C45.2177 21.6505 45.2385 21.6329 45.3923 21.764C45.5093 21.863 45.575 21.9205 46.7925 23.0772C46.8919 23.1715 47.6689 23.9112 48.047 24.2531C48.1613 24.3682 48.7044 24.8821 49.6763 25.7949C49.8061 25.9179 49.9487 26.0122 49.9839 26.1927C49.9882 26.2119 49.9898 33.4792 49.9887 47.9948C49.9887 52.6515 49.9765 55.015 49.9519 55.0853C49.9198 55.1636 49.9182 55.1684 49.2133 55.8506C48.2985 56.7357 48.2008 56.8172 48.1079 56.8939C47.9477 57.0536 47.5888 57.4099 46.0716 58.8654C45.2369 59.6643 45.2337 59.6611 45.1648 59.7345C44.9501 59.9662 44.9229 59.9438 44.6073 59.9534C44.4663 59.9582 21.9969 59.9534 20.0311 59.9534C18.7798 59.9534 18.7334 59.9646 18.6949 59.8432C18.6709 59.7665 18.6949 52.0209 18.6837 48.5571C18.6965 48.3191 18.6052 48.1609 19.0025 48.1545C19.4495 48.1465 19.7075 48.1513 19.9382 48.1513C20.9491 48.1497 21.0276 48.1865 21.0644 47.9995C21.0741 47.9484 21.0805 40.5128 21.0628 40.4505C21.0212 40.3067 20.9603 40.3291 18.9112 40.3291C17.402 40.3291 17.3732 40.361 17.2034 40.1996C16.7724 39.7906 15.9922 38.9886 15.8464 38.848C14.9444 37.9757 14.9572 37.9645 14.0601 37.089C13.6708 36.7087 13.6756 36.7039 13.6403 36.6736C12.9835 36.0936 12.8409 35.8603 12.2225 35.2852C12.1327 35.2021 12.1327 35.2021 12.1247 35.1941C11.9213 35.004 11.9421 34.956 11.9421 33.7418C11.9421 27.8389 11.9528 24.8528 11.9741 24.7836C12.0254 24.6638 12.0735 24.7005 14.0505 24.6957C14.797 24.6941 14.9172 24.7452 14.9124 24.6094C14.9124 24.5807 14.8771 24.5583 14.8771 24.5295C14.6448 24.3442 14.656 24.3346 14.4494 24.1221C13.6659 23.3169 13.6387 23.3489 12.8569 22.5436C12.0318 21.6889 11.9821 21.7144 11.9453 21.5259C11.9181 21.3869 11.9389 8.32741 11.9405 7.18028C11.9405 6.73932 11.9277 6.70736 12.2529 6.41339C12.2689 6.39901 12.3923 6.28398 12.4435 6.22965C14.0232 4.62718 14.0456 4.65274 14.1818 4.51214C15.1383 3.52318 15.6782 3.06783 16.287 2.42077C16.7244 1.95585 16.798 2.02455 16.9486 2.00537Z" fill="#A2A9AD"/>
<path d="M46.7525 27.5301L43.9969 24.8716H38.0611V20.9093L35.1164 17.9728H20.5806V10.4221H32.8254V14.2438C32.8943 14.2693 32.9376 14.1511 32.9664 14.1511H38.0611V8.13901L35.0203 5.20406C29.3537 5.25679 23.6502 5.08743 18.0044 5.29034L15.2536 8.14061C15.3065 12.1748 15.1367 16.2553 15.3401 20.2623L18.2896 23.194H32.8254V24.8716H21.984V30.0912H24.2734L24.4144 30.2318V51.2989L24.2734 51.4395H21.984V56.5201L22.125 56.6607H43.6252L46.6676 53.729L46.7605 53.4494L46.7541 27.5317L46.7525 27.5301ZM38.9967 48.9231H32.1734V39.5016H35.211C35.211 39.5016 38.6875 36.0266 38.9967 35.779V48.9231Z" fill="#FCFCFC"/>
<path fill-rule="evenodd" clip-rule="evenodd" d="M20.3226 31.5019C20.3226 31.5162 20.3274 31.6856 20.3274 31.6856C20.3386 31.7623 20.3931 31.8022 20.3931 31.8022C21.0179 31.9013 22.5255 31.7559 22.6473 31.8757C22.7049 31.9332 22.6985 31.9492 22.6985 35.9738C22.6985 36.8461 22.7049 36.8477 22.6793 36.918C22.6377 37.0315 22.5944 37.0139 21.1557 37.0139C18.7638 37.0139 18.7542 37.0219 18.6564 36.9612C18.5956 36.9228 15.5083 33.8744 15.3785 33.7211C15.2472 33.5661 15.2648 33.5453 15.2648 31.5003C15.2648 28.1324 15.2616 28.126 15.2952 28.0684C15.3497 27.9758 15.3785 27.9886 17.2306 27.9902C20.1832 27.9902 20.1912 27.9838 20.2409 28.0221C20.3338 28.094 20.3226 28.1164 20.3226 29.5431C20.3226 30.195 20.3226 30.8484 20.3226 31.5003V31.5019Z" fill="#FCFCFC"/>
<path fill-rule="evenodd" clip-rule="evenodd" d="M23.8152 13.9128C23.8297 13.9049 23.8377 13.8857 23.8521 13.8761C23.9498 13.8202 23.9562 13.8282 26.2937 13.8282H28.7241C29.264 13.8282 29.4514 13.7643 29.453 14.0758C29.4578 14.5743 29.4979 14.7341 29.1919 14.7372C28.7882 14.7404 28.7882 14.7341 24.1453 14.7325C23.9803 14.7325 23.9114 14.7436 23.8329 14.659C23.8008 14.6254 23.7768 14.5998 23.7912 14.0758C23.7944 13.956 23.8088 13.9592 23.8168 13.9112L23.8152 13.9128Z" fill="#FCFCFC"/>
<path d="M40.586 16.6689H37.4074C37.3674 16.8319 37.4747 16.8558 37.5468 16.9485C38.3415 17.9838 39.7321 18.944 40.586 19.9777V22.3551H44.9325L49.1829 26.4132L49.1364 54.7945L44.5384 59.1626C36.9637 59.1354 29.3281 58.9325 21.7453 59.0795C21.0388 59.0939 20.2682 59.3303 19.5536 59.0843V48.923H21.8911V39.5078H17.7321L12.8248 34.7068V25.4322H16.9374L12.8441 21.2655L12.8184 7.20263L12.9129 6.83037L16.9775 2.86651C23.309 2.66361 29.6965 2.83296 36.0505 2.78024C37.6766 4.09673 39.0864 5.65607 40.586 7.11316V16.6689ZM38.0611 14.151V8.13887L35.0203 5.20393C29.3537 5.25665 23.6502 5.0873 18.0044 5.2902L15.2536 8.14047C15.3065 12.1746 15.1367 16.2551 15.3401 20.2621L18.2896 23.1939H32.8254V24.8714H21.984V30.0911H24.2734L24.4144 30.2317V51.2988L24.2734 51.4394H21.984V56.52L22.125 56.6606H43.6252L46.6676 53.7288L46.7605 53.4492L46.7541 27.5316L43.9985 24.873H38.0627V20.9108L35.118 17.9742H20.5806V10.4236H32.8254V14.2452C32.8943 14.2708 32.9376 14.1526 32.9664 14.1526H38.0611V14.151ZM30.3021 12.9399H23.011V15.4563H30.3021V12.9399ZM20.3947 31.7702V27.9949L15.2536 27.9486V33.5884L18.759 36.9915H22.7322V31.7718H20.3947V31.7702Z" fill="#244589"/>
<path d="M41.5201 30.0928V51.3005L41.3791 51.4411H29.6485V36.9916H34.1824L38.0131 33.0741L38.0611 31.7703H29.6485V30.0928H41.5201ZM38.9967 35.7789C38.6875 36.0266 35.211 39.5015 35.211 39.5015H32.1734V48.9231H38.9967V35.7789Z" fill="#244589"/>
<path fill-rule="evenodd" clip-rule="evenodd" d="M38.1828 37.7375L38.1155 48.1529H32.8991V46.9722C32.8991 40.492 32.9119 40.3274 32.9119 40.3274H35.5233C35.5233 40.3274 38.1348 37.7807 38.1844 37.7391L38.1828 37.7375Z" fill="#FCFCFC"/>
</svg>
